<?xml version="1.0" encoding="utf-8"?>
<!-- Generator: Adobe Illustrator 27.5.0, SVG Export Plug-In . SVG Version: 6.00 Build 0)  -->
<svg version="1.1" id="Layer_1" xmlns:xodm="http://www.corel.com/coreldraw/odm/2003"
	 xmlns="http://www.w3.org/2000/svg" xmlns:xlink="http://www.w3.org/1999/xlink" x="0px" y="0px" viewBox="0 0 7000 3000"
	 style="enable-background:new 0 0 7000 3000;" xml:space="preserve">
<g id="Layer_x5F_1">
	<g id="_3114208164416">
		<rect style="fill-rule:evenodd;clip-rule:evenodd;fill:#01012E;" width="7000" height="3000"/>
		<g>
			
				<linearGradient id="SVGID_1_" gradientUnits="userSpaceOnUse" x1="5440.4365" y1="2128.2361" x2="6823.875" y2="3875.5674" gradientTransform="matrix(1 0 0 -1 0 3002)">
				<stop  offset="0" style="stop-color:#0463EF"/>
				<stop  offset="1" style="stop-color:#00FFFF"/>
			</linearGradient>
			<path style="fill-rule:evenodd;clip-rule:evenodd;fill:url(#SVGID_1_);" d="M6397.64,0L5713.5,864.09
				c-71.04,89.73-202.57,105.02-292.3,33.98l0,0c-89.73-71.04-105.02-202.58-33.98-292.31L5866.83,0H6397.64z"/>
			
				<linearGradient id="SVGID_00000011033561537084466180000010014923183293170872_" gradientUnits="userSpaceOnUse" x1="6356.1909" y1="1363.6589" x2="7758.8735" y2="3135.2893" gradientTransform="matrix(1 0 0 -1 0 3002)">
				<stop  offset="0" style="stop-color:#07ABA0"/>
				<stop  offset="1" style="stop-color:#ECF955"/>
			</linearGradient>
			<path style="fill-rule:evenodd;clip-rule:evenodd;fill:url(#SVGID_00000011033561537084466180000010014923183293170872_);" d="
				M7000,489.98l-677.78,856.06c-71.04,89.73-55.76,221.26,33.97,292.3l0,0c89.73,71.04,221.26,55.76,292.3-33.97L7000,1160.4
				V489.98L7000,489.98z"/>
			
				<linearGradient id="SVGID_00000104699461809975576890000018410632053176473489_" gradientUnits="userSpaceOnUse" x1="4288.5947" y1="-287.1855" x2="5691.272" y2="1484.4514" gradientTransform="matrix(1 0 0 -1 0 3002)">
				<stop  offset="0" style="stop-color:#07ABA0"/>
				<stop  offset="1" style="stop-color:#ECF955"/>
			</linearGradient>
			<path style="fill-rule:evenodd;clip-rule:evenodd;fill:url(#SVGID_00000104699461809975576890000018410632053176473489_);" d="
				M5691.28,1517.55L5691.28,1517.55c89.73,71.04,105.01,202.58,33.97,292.3L4782.96,3000h-530.75c0.8-1.04,1.59-2.09,2.41-3.12
				l1144.35-1445.36C5470.02,1461.8,5601.55,1446.51,5691.28,1517.55L5691.28,1517.55z"/>
			
				<linearGradient id="SVGID_00000020396768842153334950000015864824369437990539_" gradientUnits="userSpaceOnUse" x1="5242.8291" y1="-1003.1566" x2="6626.2695" y2="744.1706" gradientTransform="matrix(1 0 0 -1 0 3002)">
				<stop  offset="0" style="stop-color:#0463EF"/>
				<stop  offset="1" style="stop-color:#00FFFF"/>
			</linearGradient>
			<path style="fill-rule:evenodd;clip-rule:evenodd;fill:url(#SVGID_00000020396768842153334950000015864824369437990539_);" d="
				M6626.27,2257.83L6626.27,2257.83c-89.73-71.04-221.26-55.76-292.3,33.97L5773.25,3000h530.81l356.19-449.87
				C6731.29,2460.4,6716,2328.87,6626.27,2257.83L6626.27,2257.83z"/>
		</g>
		<g>
			
				<linearGradient id="SVGID_00000044151894658341375430000003481960720144254632_" gradientUnits="userSpaceOnUse" x1="1131.8794" y1="2128.2329" x2="-251.5761" y2="3875.5669" gradientTransform="matrix(1 0 0 -1 0 3002)">
				<stop  offset="0" style="stop-color:#0463EF"/>
				<stop  offset="1" style="stop-color:#00FFFF"/>
			</linearGradient>
			<path style="fill-rule:evenodd;clip-rule:evenodd;fill:url(#SVGID_00000044151894658341375430000003481960720144254632_);" d="
				M174.67,0l684.14,864.09c71.04,89.73,202.58,105.02,292.31,33.98l0,0c89.72-71.04,105.01-202.58,33.97-292.31L705.48,0H174.67
				L174.67,0z"/>
			
				<linearGradient id="SVGID_00000034786637442770112260000016113201848380725695_" gradientUnits="userSpaceOnUse" x1="224.9997" y1="1370.6904" x2="-1177.6815" y2="3142.3196" gradientTransform="matrix(1 0 0 -1 0 3002)">
				<stop  offset="0" style="stop-color:#07ABA0"/>
				<stop  offset="1" style="stop-color:#ECF955"/>
			</linearGradient>
			<path style="fill-rule:evenodd;clip-rule:evenodd;fill:url(#SVGID_00000034786637442770112260000016113201848380725695_);" d="
				M0,1030.16l250.1,315.88c71.04,89.73,55.75,221.26-33.98,292.3l0,0C152.91,1688.39,68.94,1695.59,0,1664.1L0,1030.16L0,1030.16z"
				/>
			
				<linearGradient id="SVGID_00000052096263365941695160000009642848500476096651_" gradientUnits="userSpaceOnUse" x1="2283.719" y1="-287.1898" x2="881.0331" y2="1484.4576" gradientTransform="matrix(1 0 0 -1 0 3002)">
				<stop  offset="0" style="stop-color:#07ABA0"/>
				<stop  offset="1" style="stop-color:#ECF955"/>
			</linearGradient>
			<path style="fill-rule:evenodd;clip-rule:evenodd;fill:url(#SVGID_00000052096263365941695160000009642848500476096651_);" d="
				M881.04,1517.55L881.04,1517.55c-89.73,71.04-105.02,202.58-33.98,292.3L1789.35,3000h530.75c-0.8-1.04-1.59-2.09-2.41-3.12
				L1173.34,1551.52C1102.3,1461.8,970.76,1446.51,881.04,1517.55L881.04,1517.55z"/>
			
				<linearGradient id="SVGID_00000036941342633279726880000017608830098967627416_" gradientUnits="userSpaceOnUse" x1="1329.4799" y1="-1003.1578" x2="-53.9522" y2="744.1716" gradientTransform="matrix(1 0 0 -1 0 3002)">
				<stop  offset="0" style="stop-color:#0463EF"/>
				<stop  offset="1" style="stop-color:#00FFFF"/>
			</linearGradient>
			<path style="fill-rule:evenodd;clip-rule:evenodd;fill:url(#SVGID_00000036941342633279726880000017608830098967627416_);" d="
				M0,2226.99c82.77-31.9,180.57-8.17,238.35,64.81L799.06,3000H268.25L0,2661.19L0,2226.99L0,2226.99z"/>
		</g>
	</g>
</g>
</svg>
