<svg xmlns="http://www.w3.org/2000/svg" version="1.1" viewBox="241 335.98 542 96.02">
<path d="M0 0 C3.65623688 0.55911608 3.65623688 0.55911608 5.16918945 2.49951172 C5.48073975 3.13646973 5.79229004 3.77342773 6.11328125 4.4296875 C6.64997437 5.49195557 6.64997437 5.49195557 7.19750977 6.57568359 C7.56545654 7.33445801 7.93340332 8.09323242 8.3125 8.875 C11.48146966 15.16803623 14.80908418 21.07407796 18.78515625 26.8984375 C20 29 20 29 20 32 C19.01 32.495 19.01 32.495 18 33 C18.28875 33.62648438 18.5775 34.25296875 18.875 34.8984375 C19.24625 35.71570313 19.6175 36.53296875 20 37.375 C20.37125 38.18710937 20.7425 38.99921875 21.125 39.8359375 C22 42 22 42 22 44 C22.66 44 23.32 44 24 44 C25.7265625 46.51953125 25.7265625 46.51953125 27.625 49.8125 C28.25664062 50.89144531 28.88828125 51.97039062 29.5390625 53.08203125 C31 56 31 56 31 59 C30.01 59 29.02 59 28 59 C29.89306824 62.33491076 31.7899625 65.6676305 33.6875 69 C34.21794922 69.93457031 34.74839844 70.86914062 35.29492188 71.83203125 C38.07224497 76.70512576 40.88894228 81.49975081 44.03051758 86.1484375 C45 88 45 88 46 93 C16.63 93 -12.74 93 -43 93 C-40.88364862 87.70912156 -38.3142727 82.9136522 -35.5625 77.9375 C-35.07201172 77.03966797 -34.58152344 76.14183594 -34.07617188 75.21679688 C-33.35977539 73.91645508 -33.35977539 73.91645508 -32.62890625 72.58984375 C-32.19650635 71.80472412 -31.76410645 71.01960449 -31.31860352 70.21069336 C-30 68 -30 68 -28.40991211 65.88500977 C-26.78416204 63.71143118 -25.9183114 61.54301618 -25 59 C-25.99 59 -26.98 59 -28 59 C-26.64782586 54.3580001 -24.73163815 50.68742097 -22.125 46.625 C-19.1129375 41.86792932 -16.39823767 37.09625505 -14 32 C-14.99 31.67 -15.98 31.34 -17 31 C-13.7375959 24.05170666 -9.94245414 17.57762051 -5.87109375 11.07421875 C-3.67626634 7.46810358 -1.79632614 3.81719305 0 0 Z " fill="#595959" transform="translate(365,337)"/>
<path d="M0 0 C-2.05258824 2.05258824 -4.10533087 4.10232141 -6.1875 6.125 C-8.80407725 8.83180405 -9.19373868 10.57464961 -9.3125 14.25 C-9.14567758 22.99427504 -1.75647225 29.02323014 4 35 C5.87905722 36.75429085 7.80130283 38.42804959 9.765625 40.0859375 C13.13688843 42.97390792 16.37850718 46.00247248 19.63452148 49.01879883 C22.31153859 51.48867849 25.02596948 53.85714644 27.875 56.125 C32.50064141 60.01371325 36.0928673 65.27860189 38 71 C38.41850057 77.38213363 37.94703299 81.46002043 33.69921875 86.5625 C25.17652335 95.02175102 12.35465825 95.65953049 1 96 C2 93 2 93 4.375 91.125 C8.473143 87.80745567 9.79016609 85.42220763 10.5625 80.1875 C10.17039638 71.46319439 0.97456293 64.49395929 -5 59 C-7.66934242 56.7595159 -10.37694614 54.57322586 -13.09375 52.390625 C-35.83360269 33.68526231 -35.83360269 33.68526231 -37.3515625 23.68359375 C-37.67423377 18.12175996 -36.81057922 14.22533624 -33.5390625 9.68359375 C-25.52360702 0.91541783 -11.11000601 -0.19491239 0 0 Z " fill="#4C4C4C" transform="translate(466,336)"/>
<path d="M0 0 C10.89 0 21.78 0 33 0 C32.01 3.63 31.02 7.26 30 11 C29.56791843 14.90338212 29.56791843 14.90338212 29.62768555 18.62353516 C29.62403488 19.30318832 29.62038422 19.98284149 29.61662292 20.68309021 C29.60864795 22.88535139 29.62201314 25.08684586 29.63671875 27.2890625 C29.63723881 28.84361775 29.63671547 30.39817366 29.63520813 31.95272827 C29.63529726 35.19189424 29.64560685 38.43080826 29.66381836 41.66992188 C29.68654148 45.79972139 29.68703625 49.92915511 29.68030071 54.05900002 C29.67694343 57.2625345 29.68362317 60.46598717 29.69342995 63.66950607 C29.69724909 65.19157863 29.69844398 66.71366034 29.6968441 68.23573685 C29.43898697 80.9565626 29.43898697 80.9565626 33 93 C22.11 93 11.22 93 0 93 C0.66 91.35 1.32 89.7 2 88 C2.47378307 83.41508687 2.54033531 78.83140605 2.59033203 74.22558594 C2.61345003 72.74147522 2.65448355 71.25753591 2.71337891 69.77441406 C3.36202901 61.41076627 3.36202901 61.41076627 0.43847656 53.95043945 C-1.68750425 52.53527211 -3.55665363 51.72963636 -6 51 C-6.97525635 50.68748291 -6.97525635 50.68748291 -7.97021484 50.36865234 C-9.78809389 49.87071362 -11.64584716 49.52623946 -13.5 49.1875 C-14.7271875 48.95417969 -15.954375 48.72085938 -17.21875 48.48046875 C-18.59546875 48.24263672 -18.59546875 48.24263672 -20 48 C-20 47.34 -20 46.68 -20 46 C-19.0821875 45.84144531 -18.164375 45.68289063 -17.21875 45.51953125 C-15.37796875 45.16955078 -15.37796875 45.16955078 -13.5 44.8125 C-12.2934375 44.59207031 -11.086875 44.37164062 -9.84375 44.14453125 C-8.55435703 43.79151918 -7.27303166 43.40809577 -6 43 C-4.89519287 42.66899292 -4.89519287 42.66899292 -3.76806641 42.33129883 C-1.11258819 41.18527207 0.23421447 40.31269315 2 38 C3.06822686 32.66948502 2.83995307 27.45710959 2.625 22.0625 C2.60199846 20.59445131 2.58243364 19.12634452 2.56640625 17.65820312 C2.44544627 11.28164596 2.04914068 6.14742203 0 0 Z " fill="#4C4C4C" transform="translate(577,336)"/>
<path d="M0 0 C10.89 0 21.78 0 33 0 C32.34 2.31 31.68 4.62 31 7 C30.82018928 9.71769795 30.72581109 12.32927679 30.74121094 15.04321289 C30.7377063 15.81488297 30.73420166 16.58655304 30.73059082 17.38160706 C30.72184563 19.91205046 30.72759639 22.4422104 30.734375 24.97265625 C30.73302641 26.74189812 30.73108427 28.51113964 30.72857666 30.28038025 C30.72563529 33.97968084 30.72989175 37.67888454 30.73925781 41.37817383 C30.75066012 46.11145507 30.74408169 50.84450966 30.73211288 55.57778263 C30.72487475 59.22812091 30.72719105 62.87840573 30.73236847 66.52874565 C30.73369913 68.27379826 30.73207778 70.01885579 30.72740936 71.76390266 C30.72231103 74.20479257 30.73010021 76.64531871 30.74121094 79.08618164 C30.73716248 79.80167175 30.73311401 80.51716187 30.72894287 81.2543335 C30.76729626 85.81937998 31.48862733 88.46588199 33 93 C22.11 93 11.22 93 0 93 C0.99 90.36 1.98 87.72 3 85 C3.44548697 81.23948746 3.44548697 81.23948746 3.38818359 77.36572266 C3.39344055 76.64909958 3.39869751 75.9324765 3.40411377 75.19413757 C3.41720056 72.85055026 3.40861471 70.50765543 3.3984375 68.1640625 C3.40046194 66.51793286 3.40337646 64.87180409 3.40713501 63.22567749 C3.41154342 59.78447893 3.40517704 56.34351491 3.39111328 52.90234375 C3.37404922 48.51576294 3.38385421 44.12973405 3.40183067 39.7431736 C3.41273191 36.3457126 3.40919283 32.94837988 3.4014473 29.55091476 C3.39946135 27.93476672 3.40184741 26.31860662 3.40888596 24.70247269 C3.4166028 22.43236227 3.40475502 20.16311352 3.38818359 17.89306641 C3.38579681 16.60703522 3.38341003 15.32100403 3.38095093 13.9960022 C3.02710587 8.90860745 3.02710587 8.90860745 0 0 Z " fill="#4C4C4C" transform="translate(524,336)"/>
<path d="M0 0 C10.56 0 21.12 0 32 0 C31.34 2.31 30.68 4.62 30 7 C29.82018928 9.71769795 29.72581109 12.32927679 29.74121094 15.04321289 C29.7377063 15.81488297 29.73420166 16.58655304 29.73059082 17.38160706 C29.72184563 19.91205046 29.72759639 22.4422104 29.734375 24.97265625 C29.73302641 26.74189812 29.73108427 28.51113964 29.72857666 30.28038025 C29.72563529 33.97968084 29.72989175 37.67888454 29.73925781 41.37817383 C29.75066012 46.11145507 29.74408169 50.84450966 29.73211288 55.57778263 C29.72487475 59.22812091 29.72719105 62.87840573 29.73236847 66.52874565 C29.73369913 68.27379826 29.73207778 70.01885579 29.72740936 71.76390266 C29.72231103 74.20479257 29.73010021 76.64531871 29.74121094 79.08618164 C29.73716248 79.80167175 29.73311401 80.51716187 29.72894287 81.2543335 C29.76729626 85.81937998 30.48862733 88.46588199 32 93 C21.11 93 10.22 93 -1 93 C-0.01 90.36 0.98 87.72 2 85 C2.26394067 82.28343973 2.40257302 79.80805496 2.37231445 77.1027832 C2.37779045 75.98654068 2.37779045 75.98654068 2.38337708 74.8477478 C2.39141025 72.4151854 2.37793752 69.98330427 2.36328125 67.55078125 C2.36276194 65.84783427 2.36328239 64.14488669 2.36479187 62.44194031 C2.36470248 58.88559944 2.3543385 55.32948684 2.33618164 51.77319336 C2.31344371 47.22030532 2.31296335 42.66774879 2.31969929 38.11481953 C2.32304312 34.60348068 2.31640222 31.09221712 2.30657005 27.58089256 C2.30272882 25.9020038 2.30156536 24.22310665 2.3031559 22.54421425 C2.30352758 20.1989918 2.29087944 17.85419201 2.2746582 15.5090332 C2.27713562 14.81957108 2.27961304 14.13010895 2.28216553 13.41975403 C2.23873246 9.47663611 1.58929666 6.5869284 0 3 C0 2.01 0 1.02 0 0 Z " fill="#4C4C4C" transform="translate(637,336)"/>
<path d="M0 0 C8.58 0 17.16 0 26 0 C26.01981934 2.60406738 26.03963867 5.20813477 26.06005859 7.89111328 C26.1270032 16.50059583 26.20464227 25.10995811 26.28752708 33.71930122 C26.33744596 38.93849155 26.38377649 44.15766207 26.421875 49.37695312 C26.45878334 54.41503972 26.50515856 59.45295882 26.55806351 64.49090195 C26.57657793 66.41176283 26.59169677 68.33265958 26.60334396 70.25357437 C26.62025687 72.94673009 26.64930417 75.63950468 26.68115234 78.33251953 C26.68331253 79.12446213 26.68547272 79.91640472 26.68769836 80.73234558 C26.69886185 81.47262497 26.71002533 82.21290436 26.7215271 82.97561646 C26.72705786 83.61165361 26.73258862 84.24769077 26.73828697 84.90300179 C27.01916294 87.71184121 27.01916294 87.71184121 29 93 C18.11 93 7.22 93 -4 93 C-3.01 90.36 -2.02 87.72 -1 85 C-0.71679283 82.02467194 -0.56206489 79.25809327 -0.56762695 76.2890625 C-0.5574353 75.45884079 -0.54724365 74.62861908 -0.53674316 73.77323914 C-0.50679631 71.05708915 -0.49737548 68.34129286 -0.48828125 65.625 C-0.47142096 63.73070114 -0.45326891 61.83641338 -0.43388367 59.94213867 C-0.38652418 54.97743192 -0.35662407 50.01277018 -0.33044434 45.0479126 C-0.30056772 39.97325761 -0.25406186 34.89875745 -0.20898438 29.82421875 C-0.12311107 19.882876 -0.05723347 9.94154893 0 0 Z " fill="#4C4C4C" transform="translate(270,336)"/>
<path d="M0 0 C4.05812536 2.65850687 7.64997195 5.36404324 11.1875 8.6875 C15.75960878 12.91267369 20.47348613 16.8764732 25.31640625 20.78515625 C28.80550916 23.66480887 32.12996921 26.70693876 35.47265625 29.75390625 C38.06962393 32.06187598 40.73404013 34.25555863 43.4375 36.4375 C48.19919799 40.28838093 52.71117834 44.35273977 57.21484375 48.5 C60.96413944 51.86542671 64.85834646 55.03253088 68.78515625 58.1875 C71 60 71 60 73 62 C73.22705078 65.07275391 73.22705078 65.07275391 73.1953125 68.9765625 C73.1924826 69.66181 73.18965271 70.3470575 73.18673706 71.05307007 C73.17553281 73.24389027 73.15042859 75.43430316 73.125 77.625 C73.11497048 79.1093691 73.10584458 80.5937446 73.09765625 82.078125 C73.07559294 85.71888261 73.04106176 89.35940156 73 93 C69.00191924 91.12734501 65.92185335 88.51884864 62.625 85.625 C61.36857227 84.53506092 60.11205947 83.4452199 58.85546875 82.35546875 C57.89519775 81.51894775 57.89519775 81.51894775 56.91552734 80.66552734 C53.93565386 78.07456419 50.93685872 75.50585348 47.9375 72.9375 C47.35822754 72.44072754 46.77895508 71.94395508 46.18212891 71.43212891 C42.30105626 68.1059597 38.40509017 64.79792158 34.5 61.5 C31.18140976 58.69738856 27.86695433 55.89026022 24.56640625 53.06640625 C23.98906738 52.57430664 23.41172852 52.08220703 22.81689453 51.57519531 C21.64463352 50.56443422 20.48277579 49.54148411 19.33154297 48.50683594 C16.35407795 45.85741795 13.49444027 43.63596214 10.00390625 41.69921875 C5.65259459 39.07419874 2.1726235 36.72952055 0 32 C-1.73357336 21.46347619 -0.85660228 10.59174602 0 0 Z " fill="#4C4C4C" transform="translate(697,336)"/>
<path d="M0 0 C3.83378636 1.81233537 5.53351018 3.30026527 7.875 6.8125 C9.60690553 11.71956568 9.63147999 15.30497476 7.8125 20.1875 C5.67230948 23.5084853 4.52149771 25.13145019 1 27 C-3.7430131 27.71278427 -8.60395117 28.1178507 -13.04296875 26.046875 C-17.46550028 22.59620843 -18.73027191 19.04222696 -19.4375 13.6875 C-18.87627381 8.95716496 -17.1308891 5.5840441 -14 2 C-9.6422569 -0.81703477 -5.01418786 -0.63370463 0 0 Z " fill="#9B9B9B" transform="translate(446,398)"/>
<path d="M0 0 C9.24 0 18.48 0 28 0 C28 6.93 28 13.86 28 21 C23 16 23 16 21.40234375 14.19140625 C16.48520612 8.72354921 10.6156317 6.01389145 4 3 C2.66358849 2.33952555 1.32886364 1.67553211 0 1 C0 0.67 0 0.34 0 0 Z " fill="#4B4B4B" transform="translate(470,336)"/>
<path d="M0 0 C8.91 0 17.82 0 27 0 C27 0.66 27 1.32 27 2 C26.113125 2.515625 25.22625 3.03125 24.3125 3.5625 C18.42934827 7.27597875 15.81831768 14.5532373 14 21 C12.05718794 18.08578191 10.71077876 15.23930112 9.25 12.0625 C6.76277162 6.98389822 4.94793333 4.5917746 0 2 C0 1.34 0 0.68 0 0 Z " fill="#9C9C9C" transform="translate(756,336)"/>
<path d="M0 0 C8.25 0 16.5 0 25 0 C25 6.93 25 13.86 25 21 C21.92171226 17.92171226 19.54159214 15.45393318 17 12.125 C12.41422185 6.75279664 6.2608383 4.01273422 0 1 C0 0.67 0 0.34 0 0 Z " fill="#9B9B9B" transform="translate(300,336)"/>
<path d="M0 0 C7.92 0 15.84 0 24 0 C24 0.66 24 1.32 24 2 C23.443125 2.20753906 22.88625 2.41507812 22.3125 2.62890625 C14.08941337 5.94869967 8.30952908 10.92062789 3 18 C2.01 18.99 1.02 19.98 0 21 C0 14.07 0 7.14 0 0 Z " fill="#9B9B9B" transform="translate(241,336)"/>
<path d="M0 0 C2.25382125 2.25382125 2.64412667 3.69446128 3.625 6.6875 C5.5488905 11.75423453 8.15358612 14.43663157 12.390625 17.72265625 C12.92171875 18.14417969 13.4528125 18.56570313 14 19 C14 19.33 14 19.66 14 20 C5.09 20 -3.82 20 -13 20 C-11.35 18.35 -9.7 16.7 -8 15 C-3.84911037 10.5975413 -2.04351253 5.59791997 0 0 Z " fill="#9B9B9B" transform="translate(697,409)"/>
</svg>